<mxfile host="Electron" modified="2023-09-08T02:45:22.968Z" agent="Mozilla/5.0 (Macintosh; Intel Mac OS X 10_15_7) AppleWebKit/537.36 (KHTML, like Gecko) draw.io/21.6.8 Chrome/114.0.5735.289 Electron/25.5.0 Safari/537.36" etag="p5jcrYyk-PfwqHF5TH4O" version="21.6.8" type="device">
  <diagram name="Page-1" id="IYQGhg4usoVvQP4y6Bmy">
    <mxGraphModel dx="1621" dy="877" grid="1" gridSize="10" guides="1" tooltips="1" connect="1" arrows="1" fold="1" page="1" pageScale="1" pageWidth="1920" pageHeight="1200" math="0" shadow="0">
      <root>
        <mxCell id="0" />
        <mxCell id="1" parent="0" />
        <mxCell id="vYFp71jg3tygPRNN9StS-1" value="" style="endArrow=none;html=1;rounded=0;strokeColor=#3399FF;" edge="1" parent="1">
          <mxGeometry width="50" height="50" relative="1" as="geometry">
            <mxPoint x="80" y="410" as="sourcePoint" />
            <mxPoint x="1960" y="410" as="targetPoint" />
          </mxGeometry>
        </mxCell>
        <mxCell id="vYFp71jg3tygPRNN9StS-2" value="前端" style="ellipse;whiteSpace=wrap;html=1;aspect=fixed;fillColor=#f8cecc;strokeColor=#b85450;" vertex="1" parent="1">
          <mxGeometry x="80" y="140" width="80" height="80" as="geometry" />
        </mxCell>
        <mxCell id="vYFp71jg3tygPRNN9StS-3" value="後端" style="ellipse;whiteSpace=wrap;html=1;aspect=fixed;fillColor=#f8cecc;strokeColor=#b85450;" vertex="1" parent="1">
          <mxGeometry x="80" y="470" width="80" height="80" as="geometry" />
        </mxCell>
        <mxCell id="vYFp71jg3tygPRNN9StS-7" style="edgeStyle=orthogonalEdgeStyle;rounded=0;orthogonalLoop=1;jettySize=auto;html=1;entryX=0;entryY=0.5;entryDx=0;entryDy=0;" edge="1" parent="1" source="vYFp71jg3tygPRNN9StS-4" target="vYFp71jg3tygPRNN9StS-6">
          <mxGeometry relative="1" as="geometry" />
        </mxCell>
        <mxCell id="vYFp71jg3tygPRNN9StS-4" value="initPlugin" style="rounded=0;whiteSpace=wrap;html=1;" vertex="1" parent="1">
          <mxGeometry x="220" y="150" width="120" height="60" as="geometry" />
        </mxCell>
        <mxCell id="vYFp71jg3tygPRNN9StS-9" style="edgeStyle=orthogonalEdgeStyle;rounded=0;orthogonalLoop=1;jettySize=auto;html=1;exitX=1;exitY=0.5;exitDx=0;exitDy=0;" edge="1" parent="1" source="vYFp71jg3tygPRNN9StS-26" target="vYFp71jg3tygPRNN9StS-8">
          <mxGeometry relative="1" as="geometry">
            <Array as="points">
              <mxPoint x="1150" y="245" />
              <mxPoint x="1150" y="245" />
            </Array>
          </mxGeometry>
        </mxCell>
        <mxCell id="vYFp71jg3tygPRNN9StS-28" style="edgeStyle=orthogonalEdgeStyle;rounded=0;orthogonalLoop=1;jettySize=auto;html=1;entryX=0;entryY=0.5;entryDx=0;entryDy=0;" edge="1" parent="1" source="vYFp71jg3tygPRNN9StS-6" target="vYFp71jg3tygPRNN9StS-26">
          <mxGeometry relative="1" as="geometry" />
        </mxCell>
        <mxCell id="vYFp71jg3tygPRNN9StS-6" value="getDefaultLocalization" style="rounded=0;whiteSpace=wrap;html=1;" vertex="1" parent="1">
          <mxGeometry x="310" y="230" width="160" height="30" as="geometry" />
        </mxCell>
        <mxCell id="vYFp71jg3tygPRNN9StS-11" style="edgeStyle=orthogonalEdgeStyle;rounded=0;orthogonalLoop=1;jettySize=auto;html=1;entryX=0.5;entryY=0;entryDx=0;entryDy=0;dashed=1;" edge="1" parent="1" source="vYFp71jg3tygPRNN9StS-8" target="vYFp71jg3tygPRNN9StS-10">
          <mxGeometry relative="1" as="geometry" />
        </mxCell>
        <mxCell id="vYFp71jg3tygPRNN9StS-8" value="postMessage(&quot;init&quot;)" style="rounded=0;whiteSpace=wrap;html=1;" vertex="1" parent="1">
          <mxGeometry x="1150" y="230" width="160" height="30" as="geometry" />
        </mxCell>
        <mxCell id="vYFp71jg3tygPRNN9StS-17" style="edgeStyle=orthogonalEdgeStyle;rounded=0;orthogonalLoop=1;jettySize=auto;html=1;entryX=0;entryY=0.5;entryDx=0;entryDy=0;" edge="1" parent="1" source="vYFp71jg3tygPRNN9StS-10" target="vYFp71jg3tygPRNN9StS-14">
          <mxGeometry relative="1" as="geometry" />
        </mxCell>
        <mxCell id="vYFp71jg3tygPRNN9StS-10" value="pluginInit" style="rounded=0;whiteSpace=wrap;html=1;" vertex="1" parent="1">
          <mxGeometry x="1170" y="480" width="120" height="60" as="geometry" />
        </mxCell>
        <mxCell id="vYFp71jg3tygPRNN9StS-14" value="取得偏好語言" style="rhombus;whiteSpace=wrap;html=1;fontColor=#000000;fillColor=#ffffc0;strokeColor=#ff0000;" vertex="1" parent="1">
          <mxGeometry x="1270" y="570.0000000000001" width="116" height="58" as="geometry" />
        </mxCell>
        <mxCell id="vYFp71jg3tygPRNN9StS-15" value="有" style="edgeStyle=orthogonalEdgeStyle;html=1;align=left;verticalAlign=bottom;endArrow=open;endSize=8;strokeColor=#ff0000;rounded=0;entryX=0;entryY=0.5;entryDx=0;entryDy=0;" edge="1" source="vYFp71jg3tygPRNN9StS-14" parent="1" target="vYFp71jg3tygPRNN9StS-18">
          <mxGeometry x="-1" relative="1" as="geometry">
            <mxPoint x="1450" y="599.0000000000001" as="targetPoint" />
            <mxPoint as="offset" />
          </mxGeometry>
        </mxCell>
        <mxCell id="vYFp71jg3tygPRNN9StS-16" value="無" style="edgeStyle=orthogonalEdgeStyle;html=1;align=left;verticalAlign=top;endArrow=open;endSize=8;strokeColor=#ff0000;rounded=0;entryX=0;entryY=0.5;entryDx=0;entryDy=0;" edge="1" source="vYFp71jg3tygPRNN9StS-14" parent="1" target="vYFp71jg3tygPRNN9StS-35">
          <mxGeometry x="-0.8787" y="2" relative="1" as="geometry">
            <mxPoint x="1450" y="704.0000000000001" as="targetPoint" />
            <Array as="points">
              <mxPoint x="1328" y="704" />
            </Array>
            <mxPoint as="offset" />
          </mxGeometry>
        </mxCell>
        <mxCell id="vYFp71jg3tygPRNN9StS-20" style="edgeStyle=orthogonalEdgeStyle;rounded=0;orthogonalLoop=1;jettySize=auto;html=1;entryX=0;entryY=0.5;entryDx=0;entryDy=0;dashed=1;" edge="1" parent="1" source="vYFp71jg3tygPRNN9StS-18" target="vYFp71jg3tygPRNN9StS-19">
          <mxGeometry relative="1" as="geometry" />
        </mxCell>
        <mxCell id="vYFp71jg3tygPRNN9StS-18" value="postMessage(&quot;initLocalization&quot;)" style="rounded=0;whiteSpace=wrap;html=1;" vertex="1" parent="1">
          <mxGeometry x="1450" y="584" width="210" height="30" as="geometry" />
        </mxCell>
        <mxCell id="vYFp71jg3tygPRNN9StS-23" style="edgeStyle=orthogonalEdgeStyle;rounded=0;orthogonalLoop=1;jettySize=auto;html=1;entryX=0;entryY=0.5;entryDx=0;entryDy=0;" edge="1" parent="1" source="vYFp71jg3tygPRNN9StS-19" target="vYFp71jg3tygPRNN9StS-21">
          <mxGeometry relative="1" as="geometry" />
        </mxCell>
        <mxCell id="vYFp71jg3tygPRNN9StS-19" value="initLocalization" style="rounded=0;whiteSpace=wrap;html=1;" vertex="1" parent="1">
          <mxGeometry x="1600" y="150" width="120" height="60" as="geometry" />
        </mxCell>
        <mxCell id="vYFp71jg3tygPRNN9StS-25" style="edgeStyle=orthogonalEdgeStyle;rounded=0;orthogonalLoop=1;jettySize=auto;html=1;" edge="1" parent="1" source="vYFp71jg3tygPRNN9StS-21" target="vYFp71jg3tygPRNN9StS-24">
          <mxGeometry relative="1" as="geometry" />
        </mxCell>
        <mxCell id="vYFp71jg3tygPRNN9StS-21" value="updateLocalization" style="rounded=0;whiteSpace=wrap;html=1;" vertex="1" parent="1">
          <mxGeometry x="1700" y="230" width="160" height="30" as="geometry" />
        </mxCell>
        <mxCell id="vYFp71jg3tygPRNN9StS-24" value="使下拉選單值和偏好相符" style="rounded=0;whiteSpace=wrap;html=1;" vertex="1" parent="1">
          <mxGeometry x="1900" y="230" width="160" height="30" as="geometry" />
        </mxCell>
        <mxCell id="vYFp71jg3tygPRNN9StS-30" style="edgeStyle=orthogonalEdgeStyle;rounded=0;orthogonalLoop=1;jettySize=auto;html=1;dashed=1;" edge="1" parent="1" source="vYFp71jg3tygPRNN9StS-26" target="vYFp71jg3tygPRNN9StS-29">
          <mxGeometry relative="1" as="geometry" />
        </mxCell>
        <mxCell id="vYFp71jg3tygPRNN9StS-26" value="postMessage(&quot;getDefaultLocalization&lt;span style=&quot;background-color: initial;&quot;&gt;&quot;)&lt;/span&gt;" style="rounded=0;whiteSpace=wrap;html=1;" vertex="1" parent="1">
          <mxGeometry x="540" y="230" width="300" height="30" as="geometry" />
        </mxCell>
        <mxCell id="vYFp71jg3tygPRNN9StS-32" style="edgeStyle=orthogonalEdgeStyle;rounded=0;orthogonalLoop=1;jettySize=auto;html=1;entryX=0;entryY=0.5;entryDx=0;entryDy=0;" edge="1" parent="1" source="vYFp71jg3tygPRNN9StS-29" target="vYFp71jg3tygPRNN9StS-31">
          <mxGeometry relative="1" as="geometry" />
        </mxCell>
        <mxCell id="vYFp71jg3tygPRNN9StS-29" value="getDefaultLocalization" style="rounded=0;whiteSpace=wrap;html=1;" vertex="1" parent="1">
          <mxGeometry x="607.5" y="480" width="165" height="60" as="geometry" />
        </mxCell>
        <mxCell id="vYFp71jg3tygPRNN9StS-34" style="edgeStyle=orthogonalEdgeStyle;rounded=0;orthogonalLoop=1;jettySize=auto;html=1;dashed=1;" edge="1" parent="1" source="vYFp71jg3tygPRNN9StS-31" target="vYFp71jg3tygPRNN9StS-33">
          <mxGeometry relative="1" as="geometry">
            <Array as="points">
              <mxPoint x="1010" y="599" />
            </Array>
          </mxGeometry>
        </mxCell>
        <mxCell id="vYFp71jg3tygPRNN9StS-31" value="postMessage(&quot;setDefaultLocalization&lt;span style=&quot;background-color: initial;&quot;&gt;&quot;)&lt;/span&gt;" style="rounded=0;whiteSpace=wrap;html=1;" vertex="1" parent="1">
          <mxGeometry x="730" y="584" width="250" height="30" as="geometry" />
        </mxCell>
        <mxCell id="vYFp71jg3tygPRNN9StS-33" value="設定預設翻譯" style="rounded=0;whiteSpace=wrap;html=1;" vertex="1" parent="1">
          <mxGeometry x="950" y="150" width="120" height="60" as="geometry" />
        </mxCell>
        <mxCell id="vYFp71jg3tygPRNN9StS-35" value="" style="ellipse;html=1;shape=endState;fillColor=#000000;strokeColor=#ff0000;" vertex="1" parent="1">
          <mxGeometry x="1470" y="690" width="30" height="30" as="geometry" />
        </mxCell>
        <mxCell id="vYFp71jg3tygPRNN9StS-36" value="&lt;div style=&quot;font-size: 16px;&quot;&gt;&lt;span style=&quot;background-color: initial;&quot;&gt;&lt;b style=&quot;&quot;&gt;&lt;font style=&quot;font-size: 16px;&quot;&gt;備註&lt;/font&gt;&lt;/b&gt;&lt;/span&gt;&lt;/div&gt;&lt;div style=&quot;&quot;&gt;&lt;span style=&quot;background-color: initial;&quot;&gt;&lt;font style=&quot;font-size: 12px;&quot;&gt;&lt;br&gt;&lt;/font&gt;&lt;/span&gt;&lt;/div&gt;&lt;div style=&quot;&quot;&gt;&lt;font color=&quot;#808080&quot;&gt;系統預設的語言為英文，所以沒有偏好語言時，直接顯示的就是英文&lt;/font&gt;&lt;/div&gt;" style="rounded=0;whiteSpace=wrap;html=1;align=left;spacing=10;verticalAlign=top;" vertex="1" parent="1">
          <mxGeometry x="1470" y="730" width="160" height="120" as="geometry" />
        </mxCell>
      </root>
    </mxGraphModel>
  </diagram>
</mxfile>
